<?xml version="1.0" encoding="UTF-8" standalone="no"?>
<!-- Created with Inkscape (http://www.inkscape.org/) -->

<svg
   xmlns:dc="http://purl.org/dc/elements/1.1/"
   xmlns:cc="http://creativecommons.org/ns#"
   xmlns:rdf="http://www.w3.org/1999/02/22-rdf-syntax-ns#"
   xmlns:svg="http://www.w3.org/2000/svg"
   xmlns="http://www.w3.org/2000/svg"
   xmlns:sodipodi="http://sodipodi.sourceforge.net/DTD/sodipodi-0.dtd"
   xmlns:inkscape="http://www.inkscape.org/namespaces/inkscape"
   width="30.88135mm"
   height="51.519913mm"
   viewBox="0 0 30.88135 51.519913"
   version="1.1"
   id="svg7006"
   inkscape:version="0.92.4 (5da689c313, 2019-01-14)"
   sodipodi:docname="gostek.svg">
  <defs
     id="defs7000" />
  <sodipodi:namedview
     id="base"
     pagecolor="#ffffff"
     bordercolor="#666666"
     borderopacity="1.0"
     inkscape:pageopacity="0.0"
     inkscape:pageshadow="2"
     inkscape:zoom="1.979899"
     inkscape:cx="92.062195"
     inkscape:cy="94.535174"
     inkscape:document-units="mm"
     inkscape:current-layer="layer1"
     showgrid="false"
     inkscape:pagecheckerboard="true"
     showborder="false"
     fit-margin-top="0"
     fit-margin-left="0"
     fit-margin-right="0"
     fit-margin-bottom="0"
     inkscape:window-width="1920"
     inkscape:window-height="1027"
     inkscape:window-x="1912"
     inkscape:window-y="-8"
     inkscape:window-maximized="1" />
  <metadata
     id="metadata7003">
    <rdf:RDF>
      <cc:Work
         rdf:about="">
        <dc:format>image/svg+xml</dc:format>
        <dc:type
           rdf:resource="http://purl.org/dc/dcmitype/StillImage" />
        <dc:title></dc:title>
      </cc:Work>
    </rdf:RDF>
  </metadata>
  <g
     inkscape:label="Layer 1"
     inkscape:groupmode="layer"
     id="layer1"
     transform="translate(-98.708137,-110.97812)">
    <path
       inkscape:connector-curvature="0"
       id="path5242"
       style="fill:#ef8e72;fill-opacity:1;fill-rule:nonzero;stroke:none;stroke-width:0.03527778"
       d="m 119.40725,121.77837 c 0.20567,1.62454 0.26106,3.20957 0.2032,4.84434 -0.0356,0.81457 -0.10936,1.63619 -0.25752,2.47015 -0.0776,0.41769 -0.17251,0.83856 -0.3041,1.26683 -0.13194,0.43427 -0.30903,0.85689 -0.50588,1.24671 -0.39617,0.78352 -0.8756,1.4919 -1.41993,2.14172 -0.54152,0.65158 -1.14935,1.24354 -1.81963,1.76459 -0.66992,0.51929 -1.40017,0.97896 -2.20592,1.30951 -0.80468,0.32103 -1.69263,0.5327 -2.59644,0.46779 -0.34643,-0.025 -0.60749,-0.32632 -0.58209,-0.6731 0.0222,-0.31186 0.26847,-0.55422 0.57009,-0.58138 l 0.0155,-0.001 c 0.66781,-0.061 1.32539,-0.28258 1.93605,-0.6223 0.61312,-0.33479 1.19274,-0.75918 1.71697,-1.25201 1.04034,-0.98672 1.93922,-2.18299 2.50754,-3.44629 0.14041,-0.31679 0.25012,-0.62582 0.33302,-0.94473 0.0847,-0.32456 0.14888,-0.67169 0.19932,-1.02694 0.0977,-0.71332 0.1517,-1.45556 0.17569,-2.20627 0.031,-0.75036 0.0314,-1.50989 0.009,-2.27119 -0.008,-0.75706 -0.0459,-1.53529 -0.0811,-2.27259 l -10e-4,-0.0293 c -0.0282,-0.5842 0.42227,-1.08021 1.00612,-1.10843 0.55456,-0.0268 1.03081,0.38277 1.10102,0.92428" />
    <path
       inkscape:connector-curvature="0"
       id="path5244"
       style="fill:#3e3e9e;fill-opacity:1;fill-rule:nonzero;stroke:none;stroke-width:0.03527778"
       d="m 119.05236,119.31351 c 0.70238,-0.17992 1.14653,2.07574 1.44286,3.28013 0.2092,0.85125 0.32173,2.72133 0.36971,3.74544 0.0176,0.3743 -0.29633,0.6798 -0.67028,0.65052 l -2.95275,-0.22966 c -0.31291,-0.0243 -0.55738,-0.27693 -0.57396,-0.59055 -0.0843,-1.60478 -0.10337,-6.21665 2.38442,-6.85588" />
    <path
       inkscape:connector-curvature="0"
       id="path5246"
       style="fill:#f9b19b;fill-opacity:1;fill-rule:nonzero;stroke:none;stroke-width:0.03527778"
       d="m 112.20706,155.60764 c 0.42968,0.88371 1.15076,2.86067 1.15076,2.86067 l 1.23261,-0.30232 c 0,0 -0.58138,-2.39572 -0.81421,-3.09351 l -1.56916,0.53516" />
    <path
       inkscape:connector-curvature="0"
       id="path5248"
       style="fill:#f9b19b;fill-opacity:1;fill-rule:nonzero;stroke:none;stroke-width:0.03527778"
       d="m 117.12161,156.62576 c 0.33126,0.8837 0.85548,2.86103 0.85548,2.86103 l 1.13736,-0.30269 c 0,0 -0.37042,-2.39571 -0.53516,-3.09315 l -1.45768,0.53481" />
    <path
       inkscape:connector-curvature="0"
       id="path5250"
       style="fill:#4a47a5;fill-opacity:1;fill-rule:nonzero;stroke:none;stroke-width:0.03527778"
       d="m 128.08382,121.09363 c -0.35136,-1.70392 -1.85208,-2.92347 -3.58351,-2.92347 l -0.0695,7.1e-4 -3.24168,0.0607 c -0.16263,0.003 -0.32244,0.0434 -0.46672,0.11853 l -1.80799,0.93628 v 3.4e-4 c -1.29469,0.67063 -1.97873,2.13924 -1.6637,3.57152 1.56281,7.11271 1.35961,12.93989 1.35749,12.9981 -0.012,0.30833 0.11148,0.60678 0.33761,0.81668 0.1965,0.18238 0.45438,0.28293 0.72002,0.28293 0.0395,0 0.079,-0.002 0.11924,-0.007 l 8.23453,-0.9331 c 0.5073,-0.0575 0.90135,-0.46884 0.93698,-0.9779 0.43921,-6.32495 -0.35842,-11.45152 -0.87277,-13.9446" />
    <path
       inkscape:connector-curvature="0"
       id="path5254"
       style="fill:#ffffff;fill-opacity:1;fill-rule:nonzero;stroke:none;stroke-width:0.03527778"
       d="m 121.36552,121.90008 h -0.007 c -0.28645,0.006 -0.51293,0.34043 -0.50447,0.74612 0.004,0.19897 0.0635,0.38418 0.16687,0.52211 0.0991,0.13088 0.22648,0.2025 0.35948,0.20285 l 0.008,-3.4e-4 c 0.13582,-0.003 0.26317,-0.0797 0.35842,-0.21732 0.0981,-0.14181 0.14993,-0.32949 0.1457,-0.52846 -0.004,-0.19896 -0.0631,-0.38452 -0.16687,-0.52211 -0.0991,-0.13123 -0.22648,-0.20284 -0.35948,-0.20284 z m 0.0145,1.55927 c -0.16157,0 -0.31397,-0.0843 -0.42968,-0.23812 -0.115,-0.1524 -0.18027,-0.35595 -0.18485,-0.57362 -0.009,-0.45402 0.25576,-0.82867 0.59055,-0.83573 h 0.01 c 0.16157,0 0.31397,0.0843 0.42968,0.23777 0.115,0.1524 0.18062,0.35631 0.18485,0.57362 0.005,0.21731 -0.0526,0.42333 -0.16157,0.58032 -0.11148,0.16157 -0.26388,0.25224 -0.42898,0.25541 l -0.01,3.5e-4" />
    <path
       inkscape:connector-curvature="0"
       id="path5256"
       style="fill:#ffffff;fill-opacity:1;fill-rule:nonzero;stroke:none;stroke-width:0.03527778"
       d="m 121.66045,123.92714 h -0.008 c -0.13582,0.003 -0.26318,0.0801 -0.35807,0.21766 -0.0981,0.14147 -0.15029,0.32914 -0.14605,0.52846 0.008,0.40182 0.24377,0.72461 0.52634,0.72461 h 0.007 c 0.13617,-0.003 0.26353,-0.0801 0.35878,-0.21731 0.0981,-0.14182 0.14993,-0.3295 0.14569,-0.52846 -0.004,-0.19897 -0.0635,-0.38453 -0.16686,-0.52212 -0.0991,-0.13088 -0.22648,-0.20284 -0.35948,-0.20284 z m 0.0148,1.55892 c -0.33091,0 -0.60572,-0.36124 -0.6149,-0.81103 -0.005,-0.21767 0.0529,-0.42369 0.16158,-0.58068 0.11147,-0.16122 0.26423,-0.25188 0.42897,-0.25541 h 0.01 c 0.16158,0 0.31398,0.0843 0.42969,0.23778 0.115,0.1524 0.18027,0.3563 0.18485,0.57361 0.005,0.21731 -0.0526,0.42334 -0.16157,0.58032 -0.11148,0.16122 -0.26388,0.25188 -0.42898,0.25541 h -0.009" />
    <path
       inkscape:connector-curvature="0"
       id="path5258"
       style="fill:#1a2134;fill-opacity:1;fill-rule:nonzero;stroke:none;stroke-width:0.03527778"
       d="m 119.68595,136.60562 -0.94086,-7.2e-4 c -0.62512,0.006 -1.24848,0.0229 -1.87254,0.0533 -1.24884,0.0628 -2.49943,0.16652 -3.75991,0.34326 -1.25942,0.17462 -2.5273,0.41275 -3.80894,0.77152 -1.27917,0.35772 -2.57951,0.83503 -3.87068,1.57904 v 0 l -0.24236,0.1344 c -0.11712,0.0667 -0.2293,0.14464 -0.33584,0.23495 -0.92251,0.78035 -1.03787,2.16077 -0.25718,3.08363 0.0607,0.0716 0.16087,0.21273 0.24483,0.32985 l 0.26353,0.37818 c 0.17533,0.25894 0.35136,0.51999 0.52317,0.78846 0.34678,0.53234 0.68297,1.08126 1.016,1.63406 0.66216,1.10843 1.29434,2.2472 1.90641,3.40113 0.60995,1.1557 1.1945,2.3301 1.75824,3.51755 0.56515,1.18745 1.10102,2.39113 1.62701,3.60327 l 2.19675,-0.73307 c -0.32738,-1.30739 -0.66816,-2.61479 -1.04211,-3.91619 -0.37323,-1.30139 -0.77152,-2.59891 -1.20191,-3.89149 -0.43321,-1.29152 -0.89217,-2.57916 -1.39594,-3.86115 -0.17498,-0.44027 -0.35454,-0.88018 -0.53975,-1.32009 0.22295,-0.073 0.44979,-0.14253 0.68086,-0.20673 1.00154,-0.28081 2.06763,-0.48542 3.15524,-0.63535 1.08762,-0.15276 2.20134,-0.24589 3.31964,-0.30198 0.55951,-0.0272 1.12043,-0.043 1.68028,-0.048 l 0.83679,7.9e-4 0.009,2.7e-4 c 0.43956,0.006 0.80539,-0.33655 0.82727,-0.77576 l 0.20461,-4.13738 c -0.36619,-0.0159 -0.65758,-0.0208 -0.98108,-0.0257" />
    <path
       inkscape:connector-curvature="0"
       id="path5260"
       style="fill:#242e57;fill-opacity:1;fill-rule:nonzero;stroke:none;stroke-width:0.03527778"
       d="m 129.51187,137.45546 -0.2099,-2.61444 c -0.0226,-0.2861 -0.16087,-0.55033 -0.38206,-0.73272 -0.22155,-0.18203 -0.50624,-0.26705 -0.79199,-0.23459 l -8.7884,0.99554 c -0.54822,0.0621 -0.95673,0.53481 -0.93839,1.0862 l 0.0363,1.11019 c -0.79304,0.18274 -1.58714,0.3803 -2.38513,0.61348 -1.24389,0.36548 -2.49273,0.77858 -3.76696,1.35149 l -0.19897,0.0847 c -0.0783,0.0339 -0.15592,0.073 -0.23177,0.11712 -1.05869,0.61384 -1.41852,1.96991 -0.80469,3.02825 0.0554,0.0956 0.13476,0.254 0.2032,0.39017 l 0.21273,0.43215 0.41769,0.89006 c 0.27622,0.59902 0.54186,1.21003 0.80433,1.82351 0.52282,1.22908 1.01706,2.47967 1.49472,3.74015 0.47731,1.26083 0.92957,2.53506 1.36878,3.81635 0.43815,1.28199 0.85372,2.57387 1.26012,3.87103 l 2.29164,-0.51541 c -0.20073,-1.36454 -0.41169,-2.7305 -0.64805,-4.09398 -0.23707,-1.36314 -0.48965,-2.72662 -0.77152,-4.08835 -0.28223,-1.36172 -0.58491,-2.72273 -0.92358,-4.0841 -0.14005,-0.55739 -0.28539,-1.11513 -0.43815,-1.67393 0.36195,-0.11924 0.72779,-0.2346 1.09891,-0.34361 1.08479,-0.31821 2.21685,-0.57644 3.35244,-0.8195 1.13842,-0.24166 2.29659,-0.44239 3.45687,-0.62654 0.34008,-0.0529 0.68439,-0.10442 1.0287,-0.15381 l 1.36772,-0.0723 c 0.35349,-0.0187 0.69215,-0.0995 1.00895,-0.23036 l 0.0628,-0.007 -0.002,-0.019 c 0.40428,-0.17745 0.76941,-0.43992 1.06962,-0.78282 0.54786,-0.62653 0.8128,-1.4284 0.74612,-2.25778" />
    <path
       inkscape:connector-curvature="0"
       id="path5262"
       style="fill:#3e3e9e;fill-opacity:1;fill-rule:nonzero;stroke:none;stroke-width:0.03527778"
       d="m 118.38138,134.29669 c -0.005,0.38452 -0.0145,1.0989 -0.0268,1.51871 -0.002,0.0519 0.0406,0.0921 0.0928,0.0896 0.90558,-0.0462 7.99712,-0.42193 10.80558,-0.9899 0.0416,-0.008 0.0691,-0.0416 0.0699,-0.0836 0.003,-0.19332 0.004,-0.77117 -0.0656,-1.51483 -0.0257,-0.27728 -0.27799,-0.47695 -0.55386,-0.43885 -1.54058,0.21272 -6.35176,0.85725 -10.05769,1.13629 -0.14888,0.0109 -0.26212,0.13335 -0.26423,0.28258" />
    <path
       inkscape:connector-curvature="0"
       id="path5264"
       style="fill:#f9b19b;fill-opacity:1;fill-rule:nonzero;stroke:none;stroke-width:0.03527778"
       d="m 121.20889,120.70063 c -0.33831,0 -0.67769,-0.12065 -0.94827,-0.36618 -1.88806,-1.7138 -2.08597,-4.40972 -2.10255,-4.71135 -0.042,-0.77823 0.55457,-1.44321 1.33279,-1.48555 0.77788,-0.0402 1.43969,0.55104 1.4852,1.3268 0.0325,0.50518 0.30833,1.98755 1.18145,2.7806 0.57714,0.52352 0.62018,1.41605 0.0967,1.99319 -0.27834,0.30692 -0.66111,0.46249 -1.04528,0.46249" />
    <path
       inkscape:connector-curvature="0"
       id="path5266"
       style="fill:#dc7b56;fill-opacity:1;fill-rule:nonzero;stroke:none;stroke-width:0.03527778"
       d="m 120.50827,117.08043 c 0,0 -3.62761,0.84949 -1.19873,2.6423 2.07962,1.53529 2.7125,-1.80516 1.19873,-2.6423" />
    <path
       inkscape:connector-curvature="0"
       id="path5268"
       style="fill:#f9b19b;fill-opacity:1;fill-rule:nonzero;stroke:none;stroke-width:0.03527778"
       d="m 120.44336,114.02467 c 0.0102,0.24729 0.0335,0.54821 0.0554,0.82267 l 0.079,0.83326 c 0.03,0.272 0.0617,0.54363 0.0991,0.79693 0.0363,0.25259 0.078,0.49636 0.11536,0.69109 l 0.0367,0.18874 c 0.26458,1.36348 -0.62618,2.68287 -1.98931,2.94746 -1.20086,0.23318 -2.36785,-0.4311 -2.80953,-1.52436 -0.15416,-0.38029 -0.27199,-0.72108 -0.38311,-1.05657 -0.10972,-0.33443 -0.20497,-0.65511 -0.29775,-0.97649 -0.0921,-0.32032 -0.17674,-0.63605 -0.25858,-0.95285 -0.0819,-0.32208 -0.15734,-0.61912 -0.23495,-0.9712 l -0.0155,-0.0702 c -0.33726,-1.52929 0.629,-3.04271 2.15864,-3.37996 1.52965,-0.33761 3.04307,0.629 3.38032,2.15864 0.0353,0.15981 0.0564,0.33479 0.0642,0.49284" />
    <path
       inkscape:connector-curvature="0"
       id="path5270"
       style="fill:#242e57;fill-opacity:1;fill-rule:nonzero;stroke:none;stroke-width:0.03527778"
       d="m 117.84974,116.33395 c 0.0321,0.11465 0.15134,0.18168 0.266,0.14958 0.11465,-0.0321 0.18168,-0.15099 0.14957,-0.266 -0.0321,-0.11465 -0.15134,-0.18168 -0.26599,-0.14922 -0.11465,0.0318 -0.18168,0.15099 -0.14958,0.26564" />
    <path
       inkscape:connector-curvature="0"
       id="path5272"
       style="fill:#242e57;fill-opacity:1;fill-rule:nonzero;stroke:none;stroke-width:0.03527778"
       d="m 115.58032,116.95554 c 0.0318,0.11466 0.15099,0.18168 0.266,0.14993 0.11465,-0.0324 0.18132,-0.15134 0.14922,-0.26599 -0.0318,-0.11501 -0.15099,-0.18203 -0.26599,-0.14958 -0.11466,0.0321 -0.18133,0.15099 -0.14923,0.26564" />
    <path
       inkscape:connector-curvature="0"
       id="path5274"
       style="fill:#242e57;fill-opacity:1;fill-rule:nonzero;stroke:none;stroke-width:0.03527778"
       d="m 117.37843,115.5723 -0.0709,-0.12488 c 0.0332,-0.0187 0.82867,-0.4639 1.42946,-0.0684 l -0.0794,0.11994 c -0.52917,-0.34854 -1.27142,0.0692 -1.27918,0.0734" />
    <path
       inkscape:connector-curvature="0"
       id="path5276"
       style="fill:#242e57;fill-opacity:1;fill-rule:nonzero;stroke:none;stroke-width:0.03527778"
       d="m 118.45229,118.56033 -0.0826,-0.11712 c 0.49812,-0.35208 0.79445,-0.92746 0.79727,-0.93345 l 0.12806,0.0653 c -0.0127,0.0247 -0.31573,0.61313 -0.84278,0.98531" />
    <path
       inkscape:connector-curvature="0"
       id="path5278"
       style="fill:#242e57;fill-opacity:1;fill-rule:nonzero;stroke:none;stroke-width:0.03527778"
       d="m 114.88217,116.1685 -0.13828,-0.0374 c 0.002,-0.007 0.19755,-0.69109 0.96555,-0.60537 l -0.0159,0.14288 c -0.65194,-0.0734 -0.80469,0.47625 -0.81139,0.49989" />
    <path
       inkscape:connector-curvature="0"
       id="path5280"
       style="fill:#dc7b56;fill-opacity:1;fill-rule:nonzero;stroke:none;stroke-width:0.03527778"
       d="m 117.34315,118.16451 h -0.62124 l 0.0159,-0.085 c 0.10443,-0.55633 0.0339,-1.12112 -0.2099,-1.67887 l 0.13159,-0.0575 c 0.24306,0.55633 0.32138,1.12042 0.23389,1.67781 h 0.44979 v 0.14358" />
    <path
       inkscape:connector-curvature="0"
       id="path5282"
       style="fill:#242e57;fill-opacity:1;fill-rule:nonzero;stroke:none;stroke-width:0.03527778"
       d="m 121.4202,114.06065 c -0.0215,-1.20192 -0.0483,-1.74061 -0.6798,-1.76036 l 0.4893,-0.28011 c 0,0 -0.23953,-0.10724 -0.50694,0.0483 0.20849,-0.43109 -0.0388,-0.74718 -0.0388,-0.74718 l -0.23565,0.8128 c -0.39793,-0.89112 -1.59949,-1.64253 -3.46357,-0.76518 -1.69933,0.8001 -2.81411,0.7747 -2.81411,0.7747 0,0 0.21026,0.26423 0.63042,0.4692 -0.71262,0.0635 -1.39524,0.0134 -1.39524,0.0134 0.17533,0.31927 0.50271,0.5521 0.89323,0.69145 -0.54716,0.0504 -0.9846,0.0444 -0.9846,0.0444 0.24836,0.41063 0.74083,0.6611 1.29328,0.75142 -0.41557,0.20637 -0.71367,0.32878 -0.71367,0.32878 0.84561,0.76271 3.03601,0.16122 4.24921,-0.94791 0.69145,1.34373 1.89971,2.86914 2.43558,2.82187 0.86748,-0.0769 0.87665,-0.3362 0.84137,-2.25566" />
    <path
       inkscape:connector-curvature="0"
       id="path5284"
       style="fill:#f9b19b;fill-opacity:1;fill-rule:nonzero;stroke:none;stroke-width:0.03527778"
       d="m 119.45523,115.87745 c 0.29175,-0.87877 0.76906,-1.37336 1.31692,-0.68615 0.79552,0.9973 -0.0755,2.61726 -0.6544,2.04929 -0.57891,-0.56797 -0.66252,-1.36314 -0.66252,-1.36314" />
    <path
       inkscape:connector-curvature="0"
       id="path5286"
       style="fill:#4b517c;fill-opacity:1;fill-rule:nonzero;stroke:none;stroke-width:0.03527778"
       d="m 118.47134,156.73794 c -1.37443,-7.42668 -3.00497,-12.80583 -3.64208,-14.77398 -0.1457,-0.45015 0.0843,-0.94333 0.52352,-1.12289 4.97417,-2.03306 12.02514,-2.8194 12.09569,-2.82716 l 0.01,0.0875 c -0.0709,0.008 -7.10988,0.79269 -12.07241,2.82151 -0.39652,0.16228 -0.6043,0.60749 -0.47272,1.01389 0.63782,1.96991 2.26942,7.35294 3.6449,14.78526 l -0.0868,0.0159" />
    <path
       inkscape:connector-curvature="0"
       id="path5288"
       style="fill:#4547a5;fill-opacity:1;fill-rule:nonzero;stroke:none;stroke-width:0.03527778"
       d="m 118.93136,158.25594 c -0.28152,0.31503 -0.78952,0.58279 -1.07315,0.69497 -0.0759,0.0303 -0.12982,0.091 -0.14993,0.17004 -0.13864,0.53764 -0.78705,2.45851 -1.51906,2.98274 -0.81633,0.58455 1.24495,0.58102 1.90747,-0.43215 0.66322,-1.01318 1.1564,-1.61467 1.6256,-1.98403 0.375,-0.29527 0.18026,-0.92604 -0.4191,-1.45802 -0.10972,-0.0977 -0.27376,-0.0833 -0.37183,0.0265" />
    <path
       inkscape:connector-curvature="0"
       id="path5290"
       style="fill:#3e3e9e;fill-opacity:1;fill-rule:nonzero;stroke:none;stroke-width:0.03527778"
       d="m 114.44932,157.67174 c -0.34573,0.24307 -0.90135,0.38876 -1.20333,0.43392 -0.0804,0.0124 -0.14675,0.0593 -0.1845,0.13159 -0.25647,0.49212 -1.32327,2.2165 -2.15477,2.56116 -0.9278,0.38383 1.08021,0.84773 1.9558,0.0113 0.87524,-0.83679 1.49155,-1.31092 2.032,-1.56421 0.43286,-0.2025 0.38559,-0.86114 -0.0773,-1.51519 -0.085,-0.12029 -0.248,-0.14322 -0.36795,-0.0586" />
    <path
       inkscape:connector-curvature="0"
       id="path5292"
       style="fill:#ffffff;fill-opacity:1;fill-rule:nonzero;stroke:none;stroke-width:0.03527778"
       d="m 117.29905,159.21091 c -0.0847,0 -0.15557,0.0194 -0.20531,0.0392 -0.16581,0.0656 -0.26388,0.19297 -0.27235,0.27905 -0.004,0.0395 0.0102,0.0688 0.0427,0.0896 0.29598,0.18874 0.70979,-0.14746 0.83221,-0.25788 -0.14605,-0.11536 -0.28399,-0.14993 -0.39723,-0.14993 z m -0.23424,0.55316 c -0.0847,0 -0.16898,-0.0208 -0.248,-0.0709 -0.0603,-0.0388 -0.09,-0.0998 -0.0833,-0.17286 0.0131,-0.13371 0.15063,-0.28187 0.32737,-0.35243 0.2413,-0.0956 0.50765,-0.0377 0.73061,0.1584 l 0.0152,0.0318 -0.0127,0.0321 c -0.0187,0.0187 -0.37677,0.37394 -0.72919,0.37394" />
    <path
       inkscape:connector-curvature="0"
       id="path5294"
       style="fill:#ffffff;fill-opacity:1;fill-rule:nonzero;stroke:none;stroke-width:0.03527778"
       d="m 117.13395,158.67081 -0.013,2.6e-4 c -0.0991,0.007 -0.12629,0.085 -0.13123,0.14958 -0.008,0.0921 0.018,0.17039 0.078,0.23883 0.15734,0.17992 0.49953,0.23495 0.63782,0.25048 -0.11147,-0.4191 -0.39758,-0.63924 -0.5715,-0.63924 z m 0.62865,0.73237 h -0.003 c -0.0215,-0.001 -0.53587,-0.0307 -0.75882,-0.2854 -0.0755,-0.0864 -0.10936,-0.18874 -0.0998,-0.30374 0.0113,-0.13653 0.091,-0.2226 0.21343,-0.23107 l 0.0176,-2.7e-4 c 0.21802,0 0.56268,0.25859 0.6731,0.7673 l -0.009,0.0381 -0.0339,0.0152" />
    <path
       inkscape:connector-curvature="0"
       id="path5296"
       style="fill:#ffffff;fill-opacity:1;fill-rule:nonzero;stroke:none;stroke-width:0.03527778"
       d="m 112.50939,158.2256 c -0.0441,0 -0.0833,0.005 -0.11536,0.0116 -0.17392,0.0363 -0.2921,0.14464 -0.31503,0.22825 -0.0102,0.0385 -0.002,0.0699 0.0268,0.0956 0.25965,0.23777 0.72461,-0.0243 0.8636,-0.11218 -0.16157,-0.17956 -0.33231,-0.22331 -0.46002,-0.22331 z m -0.13158,0.52106 c -0.11854,0 -0.23495,-0.0324 -0.33126,-0.1203 -0.0529,-0.0483 -0.0716,-0.11395 -0.0526,-0.18415 0.0356,-0.12982 0.19614,-0.25259 0.38241,-0.29104 0.25329,-0.054 0.50659,0.0483 0.69321,0.2801 l 0.01,0.0335 -0.0183,0.0296 c -0.0194,0.0138 -0.36054,0.25224 -0.68298,0.25224" />
    <path
       inkscape:connector-curvature="0"
       id="path5298"
       style="fill:#ffffff;fill-opacity:1;fill-rule:nonzero;stroke:none;stroke-width:0.03527778"
       d="m 112.50198,157.67033 c -0.0854,0 -0.12135,0.0674 -0.13652,0.1263 -0.0229,0.0892 -0.0109,0.17039 0.0363,0.24835 0.12382,0.20356 0.45191,0.31644 0.58561,0.35525 -0.0392,-0.44238 -0.29492,-0.71085 -0.46708,-0.72884 z m 0.5334,0.83256 -0.01,-0.001 c -0.0212,-0.005 -0.52317,-0.12242 -0.69885,-0.41099 -0.06,-0.0984 -0.0755,-0.20426 -0.0466,-0.31644 0.0342,-0.13194 0.12629,-0.20391 0.24941,-0.19085 0.2159,0.0229 0.52705,0.33902 0.54998,0.87347 l -0.0159,0.0353 -0.0282,0.0106" />
    <path
       inkscape:connector-curvature="0"
       id="path5300"
       style="fill:#f9b19b;fill-opacity:1;fill-rule:nonzero;stroke:none;stroke-width:0.03527778"
       d="m 129.09594,124.87646 c -0.3683,-1.64888 -0.88547,-3.18417 -1.57868,-4.71981 -0.22789,-0.5013 -0.80962,-0.75107 -1.33385,-0.55598 -0.54751,0.20391 -0.8262,0.81315 -0.62195,1.36102 l 0.0138,0.037 c 0.25647,0.68827 0.52458,1.43122 0.7426,2.15865 0.23072,0.72954 0.43815,1.46367 0.59655,2.19639 0.15275,0.73201 0.28116,1.46226 0.31362,2.16076 0.0377,0.69145 -0.0261,1.36949 -0.23495,1.80623 -0.0321,0.0787 -0.15064,0.28046 -0.24307,0.43674 l -0.29633,0.48718 c -0.20073,0.32138 -0.40993,0.63465 -0.62689,0.93874 -0.42827,0.61348 -0.90381,1.17969 -1.41428,1.6944 -1.01071,1.01176 -2.24473,1.73707 -3.6509,1.95438 -0.46743,-0.0854 -1.06186,-0.14957 -1.7459,-0.3683 -0.11218,-0.0356 -0.23777,-0.0353 -0.36547,-0.012 -0.68757,0.12489 -1.41323,1.51342 -1.22802,2.18687 0.115,0.41769 0.69462,0.11713 1.33773,0.0233 1.39347,-0.20355 3.08257,-0.20955 3.10515,-0.54645 0.003,-0.0452 0.001,-0.0833 0.002,-0.12488 0.51223,-0.0811 1.01847,-0.21555 1.50213,-0.40535 0.82303,-0.3369 1.57339,-0.81668 2.24437,-1.36454 0.67522,-0.54681 1.25765,-1.17792 1.79564,-1.82739 0.26564,-0.32808 0.51682,-0.66393 0.75741,-1.004 l 0.35348,-0.5133 c 0.11819,-0.18097 0.21767,-0.3122 0.36443,-0.58949 0.25858,-0.49424 0.3877,-0.99271 0.46425,-1.46755 0.0734,-0.4759 0.0991,-0.93733 0.0829,-1.38219 -0.0272,-0.89217 -0.15205,-1.73884 -0.33585,-2.56046" />
    <path
       inkscape:connector-curvature="0"
       id="path5302"
       style="fill:#4a47a5;fill-opacity:1;fill-rule:nonzero;stroke:none;stroke-width:0.03527778"
       d="m 125.33075,118.26329 c -0.72073,-0.0797 -0.2847,2.38443 -0.2152,3.62268 0.0699,1.23895 0.46637,3.55882 0.46637,3.55882 l 3.61986,-0.58456 c 0.25259,-0.0406 0.42439,-0.27763 0.381,-0.52987 -0.24448,-1.42875 -1.22943,-5.73264 -4.25203,-6.06707" />
    <path
       inkscape:connector-curvature="0"
       id="path5304"
       style="fill:#ffffff;fill-opacity:1;fill-rule:nonzero;stroke:none;stroke-width:0.03527778"
       d="m 125.53853,125.4522 c -0.004,-0.0233 -0.39793,-2.3368 -0.46708,-3.56377 -0.007,-0.12453 -0.0155,-0.2614 -0.0247,-0.40604 -0.037,-0.5842 -0.0833,-1.31128 -0.0607,-1.9177 l 0.0882,0.003 c -0.0226,0.60219 0.0233,1.32679 0.0607,1.90923 0.009,0.14464 0.0173,0.28152 0.0247,0.4064 0.0688,1.22202 0.46179,3.5306 0.46567,3.55388 l -0.0868,0.0148" />
    <path
       inkscape:connector-curvature="0"
       id="path5306"
       style="fill:#35427e;fill-opacity:1;fill-rule:nonzero;stroke:none;stroke-width:0.03527778"
       d="m 116.40864,156.7704 0.2533,0.93027 2.782,-0.46496 -0.1651,-1.14476 -2.8702,0.67945" />
    <path
       inkscape:connector-curvature="0"
       id="path5308"
       style="fill:#242e57;fill-opacity:1;fill-rule:nonzero;stroke:none;stroke-width:0.03527778"
       d="m 111.40908,155.80978 0.28857,0.92005 2.7619,-0.57044 -0.20849,-1.13771 -2.84198,0.7881" />
    <path
       inkscape:connector-curvature="0"
       id="path5320"
       style="fill:#242e57;fill-opacity:1;fill-rule:nonzero;stroke:none;stroke-width:0.03527778"
       d="m 121.75464,136.292 -0.012,-3.5e-4 c -0.097,-0.007 -0.17075,-0.0907 -0.16404,-0.18803 0.0268,-0.4011 -0.0409,-0.68227 -0.20638,-0.85936 -0.17991,-0.19227 -0.49389,-0.28187 -0.98848,-0.28187 -0.0977,0 -0.17639,-0.0787 -0.17639,-0.17639 0,-0.0974 0.0787,-0.17639 0.17639,-0.17639 0.59902,0 0.99483,0.12524 1.24601,0.3937 0.23636,0.25259 0.33443,0.62018 0.30092,1.12395 -0.006,0.0931 -0.084,0.16475 -0.17604,0.16475" />
    <path
       inkscape:connector-curvature="0"
       id="path5322"
       style="fill:#f8f8fa;fill-opacity:1;fill-rule:nonzero;stroke:none;stroke-width:0.03527778"
       d="m 122.05944,134.7747 c 0.0134,0.16475 -0.41487,0.33408 -0.95709,0.37888 -0.54186,0.0444 -0.99271,-0.0526 -1.00612,-0.21731 l -0.0113,-0.13899 1.96321,-0.16122 0.0113,0.13864" />
    <path
       inkscape:connector-curvature="0"
       id="path5324"
       style="fill:#242e57;fill-opacity:1;fill-rule:nonzero;stroke:none;stroke-width:0.03527778"
       d="m 122.04815,134.63606 c 0.0134,0.16439 -0.41487,0.33408 -0.95709,0.37853 -0.54186,0.0448 -0.99271,-0.0526 -1.00612,-0.21731 -0.0134,-0.1644 0.41487,-0.33408 0.95709,-0.37853 0.54186,-0.0444 0.99271,0.0526 1.00612,0.21731" />
    <path
       inkscape:connector-curvature="0"
       id="path5326"
       style="fill:#f8f8fa;fill-opacity:1;fill-rule:nonzero;stroke:none;stroke-width:0.03527778"
       d="m 121.82484,134.6544 c 0.008,0.0938 -0.32561,0.19826 -0.74436,0.23248 -0.41875,0.0346 -0.76482,-0.0138 -0.77258,-0.10795 -0.007,-0.0938 0.32561,-0.19826 0.74436,-0.23248 0.4191,-0.0346 0.76482,0.0138 0.77258,0.10795" />
    <path
       inkscape:connector-curvature="0"
       id="path5328"
       style="fill:#56c269;fill-opacity:1;fill-rule:nonzero;stroke:none;stroke-width:0.03527778"
       d="m 102.61256,138.79284 c 0.0483,0.33126 0.35843,0.56268 0.69004,0.51435 l 20.48227,-2.98909 c 0.33126,-0.048 0.56268,-0.35877 0.51435,-0.69003 l -21.68666,3.16477" />
    <path
       inkscape:connector-curvature="0"
       id="path5330"
       style="fill:#37b759;fill-opacity:1;fill-rule:nonzero;stroke:none;stroke-width:0.03527778"
       d="m 117.17558,136.66771 v 0 c 0.0967,0.33796 0.42827,0.55245 0.77611,0.502 l 5.83318,-0.85161 c 0.33126,-0.048 0.56268,-0.35877 0.51435,-0.69003 l -7.12364,1.03964" />
    <path
       inkscape:connector-curvature="0"
       id="path5332"
       style="fill:#56c269;fill-opacity:1;fill-rule:nonzero;stroke:none;stroke-width:0.03527778"
       d="m 116.88101,136.94005 -13.66731,1.99425 c -0.59161,0.0864 -1.2185,-0.31609 -1.39383,-0.89464 l -2.75484,-9.09003 c -0.17533,-0.5782 0.164748,-1.12218 0.756356,-1.20861 l 13.667314,-1.99425 c 0.59161,-0.0861 1.21885,0.31644 1.39383,0.89464 l 2.75519,9.09038 c 0.17498,0.5782 -0.16545,1.12218 -0.75671,1.20826" />
    <path
       inkscape:connector-curvature="0"
       id="path5334"
       style="fill:#72cc79;fill-opacity:1;fill-rule:nonzero;stroke:none;stroke-width:0.03527778"
       d="m 116.57022,136.98556 -13.66732,1.99425 c -0.59161,0.0864 -1.21849,-0.31644 -1.39383,-0.89464 l -2.754837,-9.09003 c -0.17533,-0.57855 0.1651,-1.12218 0.756356,-1.20861 l 13.667671,-1.99426 c 0.59125,-0.0864 1.21849,0.31645 1.39347,0.89465 l 2.75519,9.09002 c 0.17498,0.57821 -0.16545,1.12219 -0.7567,1.20862" />
    <path
       inkscape:connector-curvature="0"
       id="path5336"
       style="fill:#ffffff;fill-opacity:1;fill-rule:nonzero;stroke:none;stroke-width:0.03527778"
       d="m 102.79319,138.59493 0.006,0.0434 -0.006,-0.0434 13.66731,-1.9946 c 0.17921,-0.0261 0.32703,-0.11854 0.41699,-0.26 0.0914,-0.14393 0.11218,-0.32138 0.0579,-0.49953 l -2.75485,-9.09038 c -0.11254,-0.37148 -0.51223,-0.629 -0.89288,-0.57327 l -13.667317,1.99426 c -0.179212,0.0265 -0.327378,0.11888 -0.416984,0.25999 -0.09172,0.14429 -0.112183,0.32174 -0.05785,0.49989 l 2.754481,9.09038 c 0.11289,0.37112 0.51188,0.62829 0.89324,0.57326 z m -0.10302,0.0956 c -0.38417,0 -0.76129,-0.26952 -0.87453,-0.64347 l -2.754843,-9.09038 c -0.06138,-0.2032 -0.03739,-0.4064 0.06773,-0.57221 0.10407,-0.16368 0.274109,-0.27022 0.479073,-0.30021 l 13.66732,-1.99425 c 0.4198,-0.0624 0.86536,0.22331 0.98989,0.635 l 2.75484,9.09038 c 0.0617,0.20284 0.0378,0.4064 -0.0677,0.5722 -0.10371,0.16369 -0.27375,0.27023 -0.47907,0.29986 l -13.66732,1.99461 c -0.0384,0.006 -0.0769,0.008 -0.11536,0.008" />
    <path
       inkscape:connector-curvature="0"
       id="path5338"
       style="fill:#ffffff;fill-opacity:1;fill-rule:nonzero;stroke:none;stroke-width:0.03527778"
       d="m 107.22302,133.80245 c -0.0695,0.11994 -0.0762,0.26281 -0.0176,0.39123 0.0638,0.1404 0.19297,0.24165 0.34607,0.27128 0.25753,0.0501 0.51576,0.0568 0.76553,0.0205 0.55104,-0.0804 1.00683,-0.36477 1.28376,-0.80045 0.28151,-0.44309 0.34501,-0.98919 0.17886,-1.53811 -0.34467,-1.13736 -1.57092,-1.92687 -2.73086,-1.75578 -0.16792,0.0247 -0.32879,0.0681 -0.47801,0.12947 -0.15663,0.0642 -0.2607,0.20285 -0.27834,0.37077 -0.018,0.17075 0.0564,0.33091 0.19861,0.42863 0.41875,0.28716 0.72602,0.69744 0.86395,1.15429 0.14182,0.46707 0.0949,0.93909 -0.13193,1.32856 z m 0.77399,0.88229 c -0.1591,0 -0.31926,-0.0155 -0.47942,-0.0466 -0.20885,-0.0406 -0.38559,-0.17921 -0.47273,-0.37112 -0.0825,-0.18168 -0.073,-0.38312 0.0261,-0.55316 v 0 c 0.20144,-0.34678 0.24236,-0.7687 0.11536,-1.1885 -0.127,-0.41875 -0.40922,-0.79517 -0.79516,-1.0601 -0.19685,-0.13512 -0.29916,-0.35666 -0.27411,-0.59267 0.0247,-0.23318 0.16933,-0.4258 0.38664,-0.51541 0.16263,-0.0667 0.33726,-0.11394 0.51964,-0.14075 1.23967,-0.18133 2.55588,0.66145 2.92524,1.87924 0.18097,0.59867 0.11042,1.19662 -0.19897,1.68381 -0.3048,0.47978 -0.80433,0.79234 -1.40723,0.88053 -0.11395,0.0166 -0.22931,0.0247 -0.34537,0.0247" />
  </g>
</svg>
