<svg xmlns="http://www.w3.org/2000/svg" xmlns:xlink="http://www.w3.org/1999/xlink" viewBox="0 0 911.31 277.91"><defs><radialGradient id="radial-gradient" cx="581" cy="120.83" r="0" gradientUnits="userSpaceOnUse"><stop offset="0.02" stop-color="#e3e3e3"/><stop offset="0.48" stop-color="#b6b6b6"/><stop offset="1" stop-color="#878787"/></radialGradient><radialGradient id="radial-gradient-2" cx="732.45" cy="207.64" r="126.92" xlink:href="#radial-gradient"/><linearGradient id="linear-gradient" x1="741.13" y1="320.93" x2="741.13" y2="265.57" gradientUnits="userSpaceOnUse"><stop offset="0.19" stop-color="#8c8c8c"/><stop offset="0.22" stop-color="#959595"/><stop offset="0.33" stop-color="#b8b8b8"/><stop offset="0.44" stop-color="#d1d1d1"/><stop offset="0.54" stop-color="#e1e1e1"/><stop offset="0.62" stop-color="#e6e6e6"/><stop offset="0.67" stop-color="#d0d0d0"/><stop offset="0.74" stop-color="#b8b8b8"/><stop offset="0.82" stop-color="#a7a7a7"/><stop offset="0.9" stop-color="#9c9c9c"/><stop offset="1" stop-color="#999"/></linearGradient></defs><title>SayIT_black</title><g id="Layer_3" data-name="Layer 3"><path d="M581,120.83" transform="translate(-8.69 -43.02)" style="fill:url(#radial-gradient)"/></g><g id="Layer_5" data-name="Layer 5"><path d="M582,108.83" transform="translate(-8.69 -43.02)"/></g><g id="Layer_6" data-name="Layer 6"><path d="M189.37,190.6q0,29.84-22.6,45.62T100.43,252q-39.92,0-62.59-13.84T8.69,196.22l42-6.77q4.26,16.14,16.64,23.42t34.31,7.28q45.49,0,45.5-27.1a20.17,20.17,0,0,0-5.23-14.27q-5.22-5.61-14.72-9.36t-36.45-9.08q-23.26-5.34-32.4-8.58a92.62,92.62,0,0,1-16.49-7.64A48.38,48.38,0,0,1,29.3,133.53a45.7,45.7,0,0,1-8-14.56A58.73,58.73,0,0,1,18.41,99.8q0-27.52,21.13-42.15T101,43Q139.6,43,159,54.84t25,39.06l-42.11,5.62q-3.24-13.12-13.18-19.75t-28.5-6.63q-39.47,0-39.46,24.21,0,7.94,4.2,13t12.44,8.57q8.25,3.54,33.43,8.86,29.88,6.21,42.77,11.46t20.4,12.25a46.79,46.79,0,0,1,11.49,16.72A58.92,58.92,0,0,1,189.37,190.6Z" transform="translate(-8.69 -43.02)"/><path d="M259,252q-23.11,0-36.07-12.32T210,205q0-24.21,16.12-36.89t46.76-13l34.31-.58v-7.93q0-15.27-5.45-22.69t-17.82-7.43q-11.49,0-16.86,5.12t-6.7,16.93l-43.15-2q4-22.77,21.28-34.52t47.2-11.75q30.18,0,46.53,14.56t16.34,41.36V203q0,13.11,3,18.08t10.09,5a47.2,47.2,0,0,0,9.13-.87V247.1c-2.46.57-4.66,1.1-6.63,1.58s-3.92.87-5.89,1.16-4,.52-6.26.72-4.78.29-7.73.29q-15.6,0-23-7.5t-8.91-22h-.88Q294.07,252,259,252Zm48.16-75.09L286,177.2q-14.43.57-20.47,3.1a19,19,0,0,0-9.2,7.71q-3.17,5.19-3.17,13.83,0,11.1,5.23,16.51t13.92,5.4A32,32,0,0,0,290,218.56a35.54,35.54,0,0,0,12.59-14.34,42.89,42.89,0,0,0,4.57-19.38Z" transform="translate(-8.69 -43.02)"/><path d="M410.55,310.37a159.27,159.27,0,0,1-26.06-1.88V279.67a98.07,98.07,0,0,0,14.28,1.15q8.84,0,14.65-2.74A27.79,27.79,0,0,0,423.88,269q4.64-6.33,10.38-21.47l-63-154.35H415l25,73.07q5.89,15.7,14.87,48.13l3.68-13.69,9.58-33.87,23.56-73.64H535L472,257.33q-12.68,30-26.29,41.51T410.55,310.37Z" transform="translate(-8.69 -43.02)"/><path d="M907.22,43.05H575a12.78,12.78,0,0,0-12.77,12.78v181H920v-181A12.78,12.78,0,0,0,907.22,43.05Zm0,176.74H575V58H907.22Z" transform="translate(-8.69 -43.02)"/><path d="M553.58,192.74H911.31a0,0,0,0,1,0,0v23.81a6,6,0,0,1-6,6H559.58a6,6,0,0,1-6-6V192.74A0,0,0,0,1,553.58,192.74Z" style="fill:url(#radial-gradient-2)"/><path d="M794.28,310.52l-13-14a10.65,10.65,0,0,1-2.84-7.25l-2.13-23.66H706l-2.13,23.66a10.65,10.65,0,0,1-2.85,7.25l-13,14a6.19,6.19,0,0,0,4.54,10.41h97.21A6.2,6.2,0,0,0,794.28,310.52Z" transform="translate(-8.69 -43.02)" style="fill:url(#linear-gradient)"/><rect x="669.63" y="25.58" width="21.29" height="23.42" style="fill:#ffa3ff"/><polygon points="690.74 83.07 690.74 64.38 669.89 83.07 669.63 83.07 669.63 168.25 690.92 168.25 690.92 83.07 690.74 83.07" style="fill:#ffa3ff"/><polygon points="820.81 25.58 778.23 25.58 754.8 25.58 712.22 25.58 712.22 44.75 754.8 44.75 754.8 168.25 778.23 168.25 778.23 44.75 820.81 44.75 820.81 25.58" style="fill:#ffa3ff"/></g></svg>