<svg xmlns="http://www.w3.org/2000/svg" xmlns:xlink="http://www.w3.org/1999/xlink" viewBox="0 0 920 363.98"><defs><radialGradient id="radial-gradient" cx="581" cy="120.83" r="0" gradientUnits="userSpaceOnUse"><stop offset="0.02" stop-color="#e3e3e3"/><stop offset="0.48" stop-color="#b6b6b6"/><stop offset="1" stop-color="#878787"/></radialGradient><radialGradient id="radial-gradient-2" cx="741.13" cy="250.66" r="126.92" xlink:href="#radial-gradient"/><linearGradient id="linear-gradient" x1="741.13" y1="320.93" x2="741.13" y2="265.57" gradientUnits="userSpaceOnUse"><stop offset="0.19" stop-color="#8c8c8c"/><stop offset="0.22" stop-color="#959595"/><stop offset="0.33" stop-color="#b8b8b8"/><stop offset="0.44" stop-color="#d1d1d1"/><stop offset="0.54" stop-color="#e1e1e1"/><stop offset="0.62" stop-color="#e6e6e6"/><stop offset="0.67" stop-color="#d0d0d0"/><stop offset="0.74" stop-color="#b8b8b8"/><stop offset="0.82" stop-color="#a7a7a7"/><stop offset="0.9" stop-color="#9c9c9c"/><stop offset="1" stop-color="#999"/></linearGradient></defs><title>SayIT_blacksvg</title><g id="Layer_3" data-name="Layer 3"><path d="M581,120.83" style="fill:url(#radial-gradient)"/></g><g id="Layer_5" data-name="Layer 5"><path d="M582,108.83"/></g><g id="Layer_6" data-name="Layer 6"><text transform="translate(0 249.12) scale(1.02 1)" style="font-size:295.1630554199219px;font-family:ArimoForPowerline-Bold, Arimo for Powerline;font-weight:700">Say</text><path d="M907.22,43.05H575a12.78,12.78,0,0,0-12.77,12.78v181H920v-181A12.78,12.78,0,0,0,907.22,43.05Zm0,176.74H575V58H907.22Z"/><path d="M562.27,235.76H920a0,0,0,0,1,0,0v23.81a6,6,0,0,1-6,6H568.27a6,6,0,0,1-6-6V235.76A0,0,0,0,1,562.27,235.76Z" style="fill:url(#radial-gradient-2)"/><path d="M794.28,310.52l-13-14a10.65,10.65,0,0,1-2.84-7.25l-2.13-23.66H706l-2.13,23.66a10.65,10.65,0,0,1-2.85,7.25l-13,14a6.19,6.19,0,0,0,4.54,10.41h97.21A6.2,6.2,0,0,0,794.28,310.52Z" style="fill:url(#linear-gradient)"/><rect x="678.32" y="68.6" width="21.29" height="23.42" style="fill:#ffa3ff"/><polygon points="699.43 126.09 699.43 107.4 678.58 126.09 678.32 126.09 678.32 211.27 699.61 211.27 699.61 126.09 699.43 126.09" style="fill:#ffa3ff"/><polygon points="829.5 68.6 786.91 68.6 763.49 68.6 720.9 68.6 720.9 87.77 763.49 87.77 763.49 211.27 786.91 211.27 786.91 87.77 829.5 87.77 829.5 68.6" style="fill:#ffa3ff"/></g></svg>