<?xml version="1.0" encoding="UTF-8" standalone="no"?>
<!-- Created with Inkscape (http://www.inkscape.org/) -->

<svg
   xmlns:dc="http://purl.org/dc/elements/1.1/"
   xmlns:cc="http://creativecommons.org/ns#"
   xmlns:rdf="http://www.w3.org/1999/02/22-rdf-syntax-ns#"
   xmlns:svg="http://www.w3.org/2000/svg"
   xmlns="http://www.w3.org/2000/svg"
   xmlns:sodipodi="http://sodipodi.sourceforge.net/DTD/sodipodi-0.dtd"
   xmlns:inkscape="http://www.inkscape.org/namespaces/inkscape"
   width="7.3161025mm"
   height="5.1131783mm"
   viewBox="0 0 7.3161025 5.1131783"
   version="1.1"
   id="svg13919"
   inkscape:version="0.92.4 (5da689c313, 2019-01-14)"
   sodipodi:docname="triangle.svg">
  <defs
     id="defs13913" />
  <sodipodi:namedview
     id="base"
     pagecolor="#ffffff"
     bordercolor="#666666"
     borderopacity="1.0"
     inkscape:pageopacity="0.0"
     inkscape:pageshadow="2"
     inkscape:zoom="11.2"
     inkscape:cx="33.191753"
     inkscape:cy="2.0646508"
     inkscape:document-units="mm"
     inkscape:current-layer="layer1"
     showgrid="false"
     inkscape:pagecheckerboard="true"
     fit-margin-top="0"
     fit-margin-left="0"
     fit-margin-right="0"
     fit-margin-bottom="0"
     inkscape:window-width="1920"
     inkscape:window-height="1027"
     inkscape:window-x="1912"
     inkscape:window-y="-8"
     inkscape:window-maximized="1" />
  <metadata
     id="metadata13916">
    <rdf:RDF>
      <cc:Work
         rdf:about="">
        <dc:format>image/svg+xml</dc:format>
        <dc:type
           rdf:resource="http://purl.org/dc/dcmitype/StillImage" />
        <dc:title></dc:title>
      </cc:Work>
    </rdf:RDF>
  </metadata>
  <g
     inkscape:label="Layer 1"
     inkscape:groupmode="layer"
     id="layer1"
     transform="translate(-160.38363,-96.383839)">
    <path
       inkscape:connector-curvature="0"
       id="path8222"
       style="fill:#ffffff;fill-opacity:1;fill-rule:nonzero;stroke:none;stroke-width:0.03132055"
       d="m 167.38354,96.693702 0.27402,0.155007 -2.64787,4.493351 c -0.044,0.0747 -0.11772,0.12804 -0.20347,0.14726 -0.0861,0.0192 -0.17593,0.002 -0.24871,-0.0462 l -4.03574,-2.696201 c -0.10157,-0.06789 -0.1541,-0.188179 -0.13385,-0.307225 0.0203,-0.118736 0.1098,-0.21608 0.22846,-0.247702 l 6.6833,-1.797155 c 0.12341,-0.03317 0.25599,0.01023 0.33415,0.109436 0.0782,0.0992 0.0877,0.235921 0.0237,0.344426 l -0.27402,-0.155007 0.0835,0.298854 -6.02354,1.619826 3.18866,2.130418 2.47732,-4.204106 0.27403,0.155008 0.0835,0.298854 -0.0835,-0.298854" />
  </g>
</svg>
