<?xml version="1.0" encoding="UTF-8" standalone="no"?>
<!-- Created with Inkscape (http://www.inkscape.org/) -->

<svg
   xmlns:dc="http://purl.org/dc/elements/1.1/"
   xmlns:cc="http://creativecommons.org/ns#"
   xmlns:rdf="http://www.w3.org/1999/02/22-rdf-syntax-ns#"
   xmlns:svg="http://www.w3.org/2000/svg"
   xmlns="http://www.w3.org/2000/svg"
   xmlns:sodipodi="http://sodipodi.sourceforge.net/DTD/sodipodi-0.dtd"
   xmlns:inkscape="http://www.inkscape.org/namespaces/inkscape"
   width="10.904599mm"
   height="7.271359mm"
   viewBox="0 0 10.904599 7.271359"
   version="1.1"
   id="svg14485"
   inkscape:version="0.92.4 (5da689c313, 2019-01-14)"
   sodipodi:docname="zig.svg">
  <defs
     id="defs14479" />
  <sodipodi:namedview
     id="base"
     pagecolor="#ffffff"
     bordercolor="#666666"
     borderopacity="1.0"
     inkscape:pageopacity="0.0"
     inkscape:pageshadow="2"
     inkscape:zoom="11.2"
     inkscape:cx="13.066624"
     inkscape:cy="-1.8060043"
     inkscape:document-units="mm"
     inkscape:current-layer="layer1"
     showgrid="false"
     inkscape:pagecheckerboard="true"
     fit-margin-top="0"
     fit-margin-left="0"
     fit-margin-right="0"
     fit-margin-bottom="0"
     inkscape:window-width="1920"
     inkscape:window-height="1027"
     inkscape:window-x="1912"
     inkscape:window-y="-8"
     inkscape:window-maximized="1" />
  <metadata
     id="metadata14482">
    <rdf:RDF>
      <cc:Work
         rdf:about="">
        <dc:format>image/svg+xml</dc:format>
        <dc:type
           rdf:resource="http://purl.org/dc/dcmitype/StillImage" />
        <dc:title></dc:title>
      </cc:Work>
    </rdf:RDF>
  </metadata>
  <g
     inkscape:label="Layer 1"
     inkscape:groupmode="layer"
     id="layer1"
     transform="translate(-36.125081,-153.51308)">
    <path
       inkscape:connector-curvature="0"
       id="path8282"
       style="fill:#131112;fill-opacity:1;fill-rule:nonzero;stroke:none;stroke-width:0.03132055"
       d="m 46.641354,154.98684 -3.320607,-0.75954 0.455658,3.31003 c 0.01392,0.10044 -0.02373,0.20244 -0.100625,0.27064 -0.07658,0.0685 -0.183845,0.0958 -0.284786,0.0725 l -3.32124,-0.75985 0.454709,3.31251 c 0.01392,0.10075 -0.02405,0.20244 -0.100624,0.27064 -0.07689,0.0685 -0.183846,0.0958 -0.284787,0.0725 l -3.769303,-0.86153 c -0.170239,-0.0387 -0.275926,-0.20523 -0.236373,-0.37202 0.03987,-0.16678 0.209793,-0.27064 0.380032,-0.23158 l 3.322822,0.75923 -0.455025,-3.31282 c -0.01392,-0.10044 0.02405,-0.20244 0.10094,-0.27064 0.07658,-0.0682 0.183846,-0.0955 0.284787,-0.0725 l 3.320923,0.76015 -0.455658,-3.31002 c -0.01392,-0.10076 0.02405,-0.20244 0.100625,-0.27096 0.07689,-0.0682 0.183845,-0.0955 0.284786,-0.0725 l 3.767404,0.86215 c 0.170239,0.0387 0.275927,0.20554 0.236373,0.37233 -0.03987,0.16679 -0.210109,0.27033 -0.380031,0.23127" />
  </g>
</svg>
